<?xml version="1.0" encoding="utf-8"?>
<!-- Generator: Adobe Illustrator 24.0.2, SVG Export Plug-In . SVG Version: 6.00 Build 0)  -->
<svg version="1.1" id="bc52c4b0-5495-47d6-8fbf-e718e11a33f1"
	 xmlns="http://www.w3.org/2000/svg" xmlns:xlink="http://www.w3.org/1999/xlink" x="0px" y="0px" viewBox="0 0 803 617"
	 style="enable-background:new 0 0 803 617;" xml:space="preserve">
<style type="text/css">
	.st0{fill:#F0F0F0;}
	.st1{fill:#3F3D56;}
	.st2{fill:#FAB834;}
	.st3{fill:#FBB833;}
	.st4{fill:#FDB930;}
	.st5{opacity:0.1;enable-background:new    ;}
	.st6{opacity:0.1;fill:#FBB833;enable-background:new    ;}
	.st7{fill:#2F2E41;}
	.st8{fill:#FFB8B8;}
	.st9{fill:#CCCCCC;}
</style>
<title>mobile login</title>
<polygon class="st0" points="184.9,427 247.1,329.2 107.8,240.7 35.9,353.8 151.1,427 "/>
<path class="st1" d="M273,457.5H119v-31h154V457.5z M121,455.5h150v-27H121V455.5z"/>
<circle class="st2" cx="254" cy="442" r="10"/>
<circle class="st2" cx="226" cy="442" r="10"/>
<circle class="st2" cx="198" cy="442" r="10"/>
<circle class="st2" cx="170" cy="442" r="10"/>
<circle class="st2" cx="142" cy="442" r="10"/>
<path class="st0" d="M456,113V37h38V0H308v186h159v-18.2c0-14.3,11.6-25.8,25.8-25.8l0,0h1.2v-29H456z"/>
<rect x="538" y="480" class="st3" width="124" height="26"/>
<rect x="507" y="352" class="st0" width="182" height="24"/>
<rect y="615" class="st1" width="778" height="2"/>
<path class="st1" d="M720.2,617H492.8c-14.8,0-26.8-12-26.8-26.8V167.8c0-14.8,12-26.8,26.8-26.8h227.4c14.8,0,26.8,12,26.8,26.8
	v422.4C747,605,735,617,720.2,617z M492.8,143c-13.7,0-24.8,11.1-24.8,24.8v422.4c0,13.7,11.1,24.8,24.8,24.8h227.4
	c13.7,0,24.8-11.1,24.8-24.8V167.8c0-13.7-11.1-24.8-24.8-24.8H492.8z"/>
<path class="st1" d="M579.5,161c-3.3,0-6-2.7-6-6s2.7-6,6-6s6,2.7,6,6C585.5,158.3,582.8,161,579.5,161z M579.5,151
	c-2.2,0-4,1.8-4,4s1.8,4,4,4s4-1.8,4-4C583.5,152.8,581.7,151,579.5,151z"/>
<rect x="594.5" y="154" class="st1" width="44" height="2"/>
<path class="st4" d="M729,170v80c-44.2,0-80-35.8-80-80H729z"/>
<path class="st1" d="M730,590H483V169h247V590z M485,588h243V171H485V588z"/>
<circle class="st5" cx="671" cy="218" r="27"/>
<circle class="st4" cx="667" cy="221" r="27"/>
<rect x="494" y="186" class="st1" width="38" height="14"/>
<rect x="515" y="319" class="st1" width="38" height="14"/>
<path class="st1" d="M699,371H515v-26h184V371z M517,369h180v-22H517V369z"/>
<rect x="507" y="428" class="st0" width="182" height="24"/>
<rect x="515" y="395" class="st1" width="38" height="14"/>
<path class="st1" d="M699,447H515v-26h184V447z M517,445h180v-22H517V445z"/>
<path class="st1" d="M670,500H544v-28h126V500z M546,498h122v-24H546V498z"/>
<path class="st3" d="M694,361c0,5.5-4.5,10-10,10c-3,0-5.8-1.3-7.7-3.6l0,0c-3.5-4.3-2.9-10.6,1.4-14.1c4.3-3.5,10.6-2.9,14.1,1.4
	c1,1.2,1.6,2.5,2,4c0,0,0,0,0,0c0,0,0,0,0,0C693.9,359.4,694,360.2,694,361z"/>
<path class="st5" d="M694,361c0,5.5-4.5,10-10,10c-3,0-5.8-1.3-7.7-3.6l0,0c-0.2-0.8-0.3-1.6-0.3-2.4c0-5.5,4.5-10,10-10
	c3,0,5.8,1.3,7.7,3.6c0,0,0,0,0,0c0,0,0,0,0,0C693.9,359.4,694,360.2,694,361z"/>
<circle class="st3" cx="688" cy="367" r="10"/>
<path class="st3" d="M694,437c0,5.5-4.5,10-10,10c-3,0-5.8-1.3-7.7-3.6l0,0c-3.5-4.3-2.9-10.6,1.4-14.1c4.3-3.5,10.6-2.9,14.1,1.4
	c1,1.2,1.6,2.5,2,4c0,0,0,0,0,0c0,0,0,0,0,0C693.9,435.4,694,436.2,694,437z"/>
<path class="st6" d="M694,437c0,5.5-4.5,10-10,10c-3,0-5.8-1.3-7.7-3.6l0,0c-0.2-0.8-0.3-1.6-0.3-2.4c0-5.5,4.5-10,10-10
	c3,0,5.8,1.3,7.7,3.6c0,0,0,0,0,0c0,0,0,0,0,0C693.9,435.4,694,436.2,694,437z"/>
<circle class="st3" cx="688" cy="443" r="10"/>
<rect x="468" y="48" class="st0" width="52" height="52"/>
<path class="st1" d="M671,86c-6.6,0-12-5.4-12-12s5.4-12,12-12s12,5.4,12,12C683,80.6,677.6,86,671,86z M671,64c-5.5,0-10,4.5-10,10
	s4.5,10,10,10s10-4.5,10-10C681,68.5,676.5,64,671,64z"/>
<path class="st1" d="M407,253h-26v-26h26V253z M383,251h22v-22h-22V251z"/>
<path class="st1" d="M803,447h-26v-26h26V447z M779,445h22v-22h-22V445z"/>
<path class="st7" d="M290,272.7l4.5,2.4l15.2,8.2l24.5,13.2l14.3-26.5c5.7-10.5,1.8-23.5-8.7-29.2c0,0,0,0,0,0
	c-10.9-5.9-24.4-4.1-33.4,4.5l0,0c-2.1,2.1-4,4.5-5.4,7.1L290,272.7z"/>
<polygon class="st8" points="356.9,542.9 353.9,575.9 342.7,577.4 335.2,539.9 "/>
<path class="st7" d="M339.7,577.4c0,0,14.2-7.5,17.2-1.5c0,0-2.2,18,6.7,20.2s12.7,18,0,19.5s-21-3-25.5-3s0-15.7,0-15.7
	L339.7,577.4z"/>
<polygon class="st8" points="266.3,542.9 269.3,575.9 280.5,577.4 288,539.9 "/>
<path class="st7" d="M283.5,577.4c0,0-14.2-7.5-17.2-1.5c0,0,2.2,18-6.7,20.2s-12.7,18,0,19.5s21-3,25.5-3s0-15.7,0-15.7
	L283.5,577.4z"/>
<circle class="st8" cx="327.7" cy="259.2" r="19.5"/>
<path class="st8" d="M265.6,297.4l15.7,24.7l18.7-1.5l30.7,2.2c0,0,2.9-5.8,5.3-11.4c1.3-2.8,2.3-5.8,3-8.8
	c0.7-5.2-9.7-10.5-9.7-10.5s-0.4-0.1-1.1-0.2c-0.9-0.2-2.3-0.6-3.9-1.1c-3.5-1.2-7.7-3.2-8.5-6.1c-1.5-5.2,9.7-12.7,9.7-12.7
	L312,259.2c0,0-12,16.6-26.5,20.4c-0.8,0.2-1.7,0.4-2.6,0.5c0,0-0.1,0-0.1,0C267.1,282.4,265.6,297.4,265.6,297.4z"/>
<path class="st8" d="M273.8,290.6l-8.2,6.7c0,0-6.7,32.2-4.5,41.2s-0.7,17.2-0.7,18.7s-6.7,57.6-6.7,57.6s-13.5,29.9,0.7,27
	s9-32.9,9-32.9l17.2-52.4v-44.2L273.8,290.6z"/>
<path class="st8" d="M332.9,296.6l6,4.5l3,62.9l22.5,53.9c0,0,16.5,26.2,6,27s-17.2-27-17.2-27l-20.2-51.7l-3-50.2L332.9,296.6z"/>
<path class="st7" d="M295.5,301.1c0,0,15,10.5,38.9,6.7c0,0,6.7,13.5,3,21s4.5,25.5,6,27.7s18.7,48.7,24.7,98.8s22.5,84.6,8.2,89.1
	s-43.4,9.7-46.4,5.2s-7.5-116-7.5-116l-8.2,42.7c0,0,11.2,72.6,3,74.1s-59.9-3-58.4-12s16.5-56.1,16.5-56.1S274.6,388,289.5,370
	c0,0,6-9.7-2.2-22.5s-7.5-32.9-7.5-32.9S285.8,314.6,295.5,301.1z"/>
<polygon class="st7" points="282.9,280.1 295.5,307.9 298.5,306.4 285.5,279.6 "/>
<path class="st7" d="M324.2,290.8l9.5,20.8l2.3-0.2l-0.8-3.5l-7.1-16C327.2,291.7,325.8,291.3,324.2,290.8z"/>
<path class="st7" d="M294.5,275.1c2,6.5,8.9,10.1,15.4,8.1c3.1-1,5.7-3.1,7.2-5.9c-9.5-12.4-1.3-20.2,14-26
	c2.4-4.4,1.8-9.8-1.3-13.7c-8.6-1.1-17.2,1.7-23.5,7.7l0,0l-10.9,20.3C293.8,268.5,293.5,271.9,294.5,275.1z"/>
<ellipse class="st8" cx="316.1" cy="261.5" rx="2.6" ry="4.5"/>
<path class="st7" d="M323.9,254.1l22.5,10.2l4.1-9.1c-0.7-3.3-2.2-6.4-4.3-9.1l-15.5-7L323.9,254.1z"/>
<circle class="st2" cx="378" cy="445" r="10"/>
<circle class="st9" cx="57" cy="507.9" r="6.5"/>
<rect x="88" y="542" class="st1" width="2" height="74.4"/>
<circle class="st1" cx="89" cy="542" r="10.5"/>
<path class="st1" d="M89,587.8c0,0-1.5-32.3-32.3-28.6"/>
</svg>
